<svg id="canvas" height="auto" xmlns="http://www.w3.org/2000/svg" version="1.1" xmlns:xlink="http://www.w3.org/1999/xlink" xmlns:svgjs="http://svgjs.dev/svgjs" viewBox="0 0 900 512" width="auto" style="width: auto; height: auto;"><defs><linearGradient gradientTransform="matrix(6.123233995736766e-17,1,-1,6.123233995736766e-17,0,0)"><stop stop-color="#d1e751" offset="0"/><stop stop-color="#51e767" offset="1"/></linearGradient><linearGradient gradientTransform="matrix(6.123233995736766e-17,1,-1,6.123233995736766e-17,0,0)"><stop stop-color="#4dbce9" offset="0"/><stop stop-color="#7a4de9" offset="1"/></linearGradient><linearGradient gradientTransform="matrix(6.123233995736766e-17,1,-1,6.123233995736766e-17,0,0)"><stop stop-color="#26ade4" offset="0"/><stop stop-color="#5d26e4" offset="1"/></linearGradient><linearGradient gradientTransform="matrix(6.123233995736766e-17,1,-1,6.123233995736766e-17,0,0)" id="SvgjsLinearGradient1012"><stop stop-color="#ffffff" offset="0"/><stop stop-color="#ffffff" offset="1"/></linearGradient><linearGradient gradientTransform="matrix(6.123233995736766e-17,1,-1,6.123233995736766e-17,0,0)"><stop stop-color="#000000" offset="0"/><stop stop-color="#000000" offset="1"/></linearGradient></defs><rect width="900" height="512" fill="#3bbcd9ff"/><path d="M444.1433764178988 691.9919362157705C391.1312891897936 732.2425483284632 303.09051327582307 743.8597621441545 232.19417015609133 744.1407305673241C161.2978270363596 744.4216989904937 72.33042390425581 737.6570035970179 18.765317699508387 693.6777467547885C-34.799788505239036 649.698489912559 -67.06383642063135 550.0191440960592 -89.1964670723932 480.2651895139471C-111.32909772415506 410.511234931835 -134.6232815231841 334.1092114219206 -114.03046621106279 275.15401926211604C-93.43765089894148 216.1988271023115 -23.826039713584436 166.25782623364637 34.36042480033461 126.53403655511983C92.54688931425366 86.81024687659328 167.32051366294644 37.11167255480768 235.0883208724515 36.811281190956834C302.85612808195657 36.510889827105984 382.2291427300013 82.3253692921653 440.967268057365 124.73168837201473C499.7053933847287 167.13800745186415 569.3005019254076 228.2649674168612 587.5170728366338 291.24919567005344C605.73364374786 354.2334239232457 574.1623095945115 435.84660113354875 550.2666935247223 502.63705789116824C526.3710774549331 569.4275146487878 497.155463646004 651.7413241030778 444.1433764178988 691.9919362157705C391.1312891897936 732.2425483284632 303.09051327582307 743.8597621441545 232.19417015609133 744.1407305673241 " fill="none" stroke-width="4" stroke="url(#SvgjsLinearGradient1012)" opacity="0.5"/><path d="M1040.266111265152 718.4967149270972C990.677663488181 750.4626576321409 924.7751743664434 766.3485727701918 864.2518146745228 768.6524019380047C803.7284549826022 770.9562311058176 728.6697104218878 772.0393791815477 677.1259531136286 732.3196899339741C625.5821958053696 692.6000006864006 586.1769144184503 590.3150360034881 554.989270824968 530.3342664525633C523.8016272314857 470.35349690163827 489.9309138196789 424.3222012984788 490.0000915527344 372.4350726284247C490.06926928578986 320.5479439583706 526.3625843500726 267.6428811113743 555.4043372233008 219.0114944322388C584.446090096529 170.3801077531033 613.4135731265724 106.77041212302213 664.2506087921035 80.64675255361158C715.0876444576347 54.52309298420103 796.8616891737774 61.779962018106076 860.4265512164876 62.26953701577554C923.9914132591978 62.759112013445005 994.3398915737525 54.376829774834334 1045.6397810483643 83.58420253962834C1096.939670522976 112.79157530442234 1135.0664922556903 182.9020574691718 1168.225888064158 237.51377360453958C1201.3852838726257 292.1254897399073 1245.6700536871385 354.6973373346346 1244.5961558991703 411.2544993518349C1243.522258111202 467.8116613690352 1195.837508775352 525.6497097785312 1161.782501336349 576.8567457077415C1127.727493897346 628.063781636952 1089.8545590421231 686.5307722220532 1040.266111265152 718.4967149270972C990.677663488181 750.4626576321409 924.7751743664434 766.3485727701918 864.2518146745228 768.6524019380047 " fill="url(#SvgjsLinearGradient1012)" stroke="none" opacity="0.5"/><path d="M1086.4952207002532 397.80739700742413C1037.523659847333 426.7129987405542 969.4692439301149 430.7690935774423 909.8797789484538 431.6618636555845C850.2903139667927 432.55463373372675 779.3076616011118 426.89981132941045 728.9584308102866 403.1640174762774C678.6092000194612 379.4282236231444 637.9379522265302 338.8295264091514 607.7843942035023 289.2471005367862C577.6308361804744 239.664674664421 546.7814245216772 169.3791246551093 548.0370826721191 105.66946224208601C549.2927408225611 41.95979982906272 587.6776617954013 -37.46498747826493 615.3183431061539 -93.01087394135374C642.9590244169065 -148.55676040444254 665.7006552148341 -202.13084212138597 713.8811705366345 -227.60585653644688C762.0616858584349 -253.0808709515078 842.9510282564996 -246.4119572318735 904.4014350369564 -245.86096043171915C965.8518418174132 -245.3099636315648 1037.3640441108432 -249.6331224310034 1082.5836112193751 -224.2998757355209C1127.803178327907 -198.96662904003844 1150.5731143212738 -143.0225909522495 1175.718837688148 -93.86148025882434C1200.864561055022 -44.7003695653992 1228.7929003576478 11.985166172425295 1233.4579514206193 70.66678842502995C1238.1230024835904 129.3484106776346 1228.2029325193698 203.7048184930713 1203.7091440659756 258.22825325680367C1179.2153556125813 312.751688020536 1135.4667815531734 368.90179527429405 1086.4952207002532 397.80739700742413C1037.523659847333 426.7129987405542 969.4692439301149 430.7690935774423 909.8797789484538 431.6618636555845 " fill="none" stroke-width="4" stroke="url(#SvgjsLinearGradient1012)" opacity="0.5"/></svg>